<?xml version="1.0" encoding="UTF-8"?>
<svg xmlns="http://www.w3.org/2000/svg" width="499" height="134" viewBox="0 0 499 134" fill="none">
  <path d="M498.73 68.33C499.51 59.17 498.59 51.19 495.96 44.41C493.33 37.62 489.27 32.36 483.78 28.62C478.29 24.87 471.63 23 463.78 23C456.4 23 449.87 24.71 444.2 28.12C438.53 31.49 434.07 36.24 430.84 42.37C427.61 48.5 426 55.7 426 63.98C426 71.56 427.64 78.3 430.91 84.19C434.23 90.04 438.8 94.65 444.61 98.02C450.47 101.34 457.23 103 464.89 103C472.09 103 478.71 101.08 484.75 97.25C490.84 93.41 495.29 88.03 498.11 81.11L479.28 75.63C477.9 78.72 475.89 81.08 473.26 82.72C470.63 84.36 467.47 85.18 463.78 85.18C457.92 85.18 453.47 83.26 450.43 79.42C448.23 76.58 446.84 72.89 446.26 68.33H498.73ZM446.75 54.16C447.48 50.66 448.71 47.79 450.43 45.53C453.47 41.55 458.2 39.56 464.61 39.56C470.1 39.56 474.05 41.27 476.45 44.69C478.06 46.9 479.13 50.06 479.68 54.16H446.75Z" fill="white"></path>
  <path d="M425 25.25V43.07C422.92 42.41 420.49 42.2 417.71 42.44C414.98 42.62 412.51 43.26 410.29 44.33C408.07 45.36 406.19 46.74 404.67 48.47C403.14 50.15 401.98 52.16 401.2 54.5C400.41 56.79 400.02 59.39 400.02 62.29V101H381V25.25H397.66V37.44C398.28 36.32 398.97 35.25 399.74 34.23C401.36 32.08 403.35 30.3 405.71 28.9C407.51 27.78 409.48 26.9101 411.61 26.3101C413.73 25.65 415.93 25.25 418.2 25.11C420.47 24.93 422.73 24.97 425 25.25Z" fill="white"></path>
  <path d="M333.93 103C326.38 103 319.76 101.29 314.06 97.88C308.36 94.46 303.92 89.76 300.72 83.77C297.57 77.74 296 70.81 296 63C296 55.19 297.62 48.15 300.86 42.16C304.1 36.12 308.57 31.42 314.27 28.05C319.97 24.68 326.52 23 333.93 23C341.34 23 348.1 24.71 353.8 28.12C359.54 31.54 364.01 36.26 367.21 42.29C370.41 48.28 372 55.18 372 62.99C372 70.8 370.38 77.8 367.14 83.83C363.94 89.82 359.47 94.52 353.73 97.94C348.03 101.31 341.43 102.99 333.93 102.99V103ZM333.93 85.17C340 85.17 344.51 83.11 347.48 79C350.49 74.84 352 69.5 352 63C352 56.5 350.47 50.88 347.42 46.86C344.41 42.84 339.92 40.83 333.94 40.83C329.82 40.83 326.44 41.76 323.8 43.64C321.16 45.51 319.19 48.11 317.89 51.43C316.64 54.75 316.01 58.61 316.01 63.01C316.01 69.79 317.52 75.2 320.53 79.22C323.59 83.2 328.06 85.18 333.94 85.18L333.93 85.17Z" fill="white"></path>
  <path d="M267 103V0H286V103H267Z" fill="white"></path>
  <path d="M252.53 42.34C249.59 36.34 245.44 31.61 240.08 28.17C234.72 24.72 228.43 23 221.21 23C213.99 23 208 24.75 203.11 28.24C202.66 28.56 202.21 28.9 201.78 29.25V25.1H185V134H204.15V97.86C209.05 101.01 215.06 102.59 222.19 102.59C229.32 102.59 235.21 100.84 240.43 97.35C245.65 93.86 249.71 89.11 252.6 83.11C255.53 77.11 257 70.33 257 62.79C257 55.25 255.51 48.3 252.53 42.34ZM234.98 74.38C233.72 77.83 231.79 80.57 229.18 82.62C226.57 84.67 223.21 85.69 219.11 85.69C215.01 85.69 211.47 84.74 208.91 82.83C206.39 80.92 204.57 78.25 203.45 74.8C202.34 71.36 201.78 67.35 201.78 62.79C201.78 58.23 202.34 54.23 203.45 50.79C204.57 47.34 206.34 44.67 208.77 42.76C211.24 40.85 214.45 39.9 218.41 39.9C222.65 39.9 226.13 40.94 228.83 43.04C231.58 45.09 233.61 47.85 234.91 51.34C236.22 54.79 236.87 58.61 236.87 62.79C236.87 66.97 236.24 70.89 234.98 74.38Z" fill="white"></path>
  <path d="M41 103C32.88 103 25.75 101.36 19.59 98.09C13.43 94.77 8.63001 90.13 5.18001 84.15C1.73001 78.17 0 71.14 0 63.06V0.139999L19.31 0V62.92C19.31 66.24 19.87 69.25 20.99 71.96C22.11 74.67 23.65 77 25.61 78.97C27.62 80.93 29.92 82.45 32.54 83.52C35.2 84.55 38.02 85.06 41.01 85.06C44 85.06 46.93 84.52 49.55 83.45C52.21 82.38 54.52 80.86 56.48 78.9C58.44 76.94 59.96 74.6 61.03 71.89C62.15 69.18 62.71 66.19 62.71 62.92V0H82.02V63.06C82.02 71.14 80.29 78.17 76.84 84.15C73.39 90.13 68.58 94.78 62.43 98.09C56.27 101.36 49.14 103 41.02 103H41Z" fill="white"></path>
  <path d="M129.27 25.14L116.79 44.47L88 0H112.57L129.27 25.14Z" fill="white"></path>
  <path d="M181 103H154.68L134.68 72.1L147.22 52.15L181 103Z" fill="white"></path>
  <path d="M175 0H150.5L84 103H110.25L175 0Z" fill="white"></path>
</svg>
